<svg width="166" height="44" viewBox="0 0 166 44" fill="none" xmlns="http://www.w3.org/2000/svg">
<path d="M83.7793 23.4912V28H81.1426V15.2031H86.1348C87.0957 15.2031 87.9395 15.3789 88.666 15.7305C89.3984 16.082 89.9609 16.583 90.3535 17.2334C90.7461 17.8779 90.9424 18.6133 90.9424 19.4395C90.9424 20.6934 90.5117 21.6836 89.6504 22.4102C88.7949 23.1309 87.6084 23.4912 86.0908 23.4912H83.7793ZM83.7793 21.3555H86.1348C86.832 21.3555 87.3623 21.1914 87.7256 20.8633C88.0947 20.5352 88.2793 20.0664 88.2793 19.457C88.2793 18.8301 88.0947 18.3232 87.7256 17.9365C87.3564 17.5498 86.8467 17.3506 86.1963 17.3389H83.7793V21.3555ZM96.8486 28.1758C95.4541 28.1758 94.3174 27.748 93.4385 26.8926C92.5654 26.0371 92.1289 24.8975 92.1289 23.4736V23.2275C92.1289 22.2725 92.3135 21.4199 92.6826 20.6699C93.0518 19.9141 93.5732 19.334 94.2471 18.9297C94.9268 18.5195 95.7002 18.3145 96.5674 18.3145C97.8682 18.3145 98.8906 18.7246 99.6348 19.5449C100.385 20.3652 100.76 21.5283 100.76 23.0342V24.0713H94.7041C94.7861 24.6924 95.0322 25.1904 95.4424 25.5654C95.8584 25.9404 96.3828 26.1279 97.0156 26.1279C97.9941 26.1279 98.7588 25.7734 99.3096 25.0645L100.558 26.4619C100.177 27.001 99.6611 27.4229 99.0107 27.7275C98.3604 28.0264 97.6396 28.1758 96.8486 28.1758ZM96.5586 20.3711C96.0547 20.3711 95.6445 20.541 95.3281 20.8809C95.0176 21.2207 94.8184 21.707 94.7305 22.3398H98.2637V22.1377C98.252 21.5752 98.0996 21.1416 97.8066 20.8369C97.5137 20.5264 97.0977 20.3711 96.5586 20.3711ZM102.904 28V20.3535H101.489V18.4902H102.904V17.6816C102.904 16.6152 103.209 15.7891 103.818 15.2031C104.434 14.6113 105.292 14.3154 106.394 14.3154C106.745 14.3154 107.176 14.374 107.686 14.4912L107.659 16.46C107.448 16.4072 107.19 16.3809 106.886 16.3809C105.931 16.3809 105.453 16.8291 105.453 17.7256V18.4902H107.343V20.3535H105.453V28H102.904ZM108.266 23.1572C108.266 22.2139 108.447 21.373 108.811 20.6348C109.174 19.8965 109.695 19.3252 110.375 18.9209C111.061 18.5166 111.854 18.3145 112.757 18.3145C114.04 18.3145 115.086 18.707 115.895 19.4922C116.709 20.2773 117.163 21.3438 117.257 22.6914L117.274 23.3418C117.274 24.8008 116.867 25.9727 116.053 26.8574C115.238 27.7363 114.146 28.1758 112.774 28.1758C111.403 28.1758 110.308 27.7363 109.487 26.8574C108.673 25.9785 108.266 24.7832 108.266 23.2715V23.1572ZM110.806 23.3418C110.806 24.2441 110.976 24.9355 111.315 25.416C111.655 25.8906 112.142 26.1279 112.774 26.1279C113.39 26.1279 113.87 25.8936 114.216 25.4248C114.562 24.9502 114.734 24.1943 114.734 23.1572C114.734 22.2725 114.562 21.5869 114.216 21.1006C113.87 20.6143 113.384 20.3711 112.757 20.3711C112.136 20.3711 111.655 20.6143 111.315 21.1006C110.976 21.5811 110.806 22.3281 110.806 23.3418ZM124.183 20.8721C123.837 20.8252 123.532 20.8018 123.269 20.8018C122.308 20.8018 121.678 21.127 121.379 21.7773V28H118.839V18.4902H121.238L121.309 19.624C121.818 18.751 122.524 18.3145 123.427 18.3145C123.708 18.3145 123.972 18.3525 124.218 18.4287L124.183 20.8721ZM127.795 18.4902L127.874 19.5537C128.548 18.7275 129.459 18.3145 130.607 18.3145C131.832 18.3145 132.673 18.7979 133.13 19.7646C133.798 18.7979 134.75 18.3145 135.986 18.3145C137.018 18.3145 137.785 18.6162 138.289 19.2197C138.793 19.8174 139.045 20.7197 139.045 21.9268V28H136.496V21.9355C136.496 21.3965 136.391 21.0039 136.18 20.7578C135.969 20.5059 135.597 20.3799 135.063 20.3799C134.302 20.3799 133.774 20.7432 133.481 21.4697L133.49 28H130.95V21.9443C130.95 21.3936 130.842 20.9951 130.625 20.749C130.408 20.5029 130.039 20.3799 129.518 20.3799C128.797 20.3799 128.275 20.6787 127.953 21.2764V28H125.413V18.4902H127.795ZM143.686 28H141.137V18.4902H143.686V28ZM140.987 16.0293C140.987 15.6484 141.113 15.335 141.365 15.0889C141.623 14.8428 141.972 14.7197 142.411 14.7197C142.845 14.7197 143.19 14.8428 143.448 15.0889C143.706 15.335 143.835 15.6484 143.835 16.0293C143.835 16.416 143.703 16.7324 143.439 16.9785C143.182 17.2246 142.839 17.3477 142.411 17.3477C141.983 17.3477 141.638 17.2246 141.374 16.9785C141.116 16.7324 140.987 16.416 140.987 16.0293ZM148.124 18.4902L148.203 19.5889C148.883 18.7393 149.794 18.3145 150.937 18.3145C151.944 18.3145 152.694 18.6104 153.187 19.2021C153.679 19.7939 153.931 20.6787 153.942 21.8564V28H151.402V21.918C151.402 21.3789 151.285 20.9893 151.051 20.749C150.816 20.5029 150.427 20.3799 149.882 20.3799C149.167 20.3799 148.631 20.6846 148.273 21.2939V28H145.733V18.4902H148.124ZM155.507 23.1748C155.507 21.7158 155.853 20.541 156.544 19.6504C157.241 18.7598 158.179 18.3145 159.356 18.3145C160.399 18.3145 161.211 18.6719 161.791 19.3867L161.896 18.4902H164.199V27.6836C164.199 28.5156 164.009 29.2393 163.628 29.8545C163.253 30.4697 162.723 30.9385 162.037 31.2607C161.352 31.583 160.549 31.7441 159.629 31.7441C158.932 31.7441 158.252 31.6035 157.59 31.3223C156.928 31.0469 156.427 30.6895 156.087 30.25L157.212 28.7031C157.845 29.4121 158.612 29.7666 159.515 29.7666C160.188 29.7666 160.713 29.585 161.088 29.2217C161.463 28.8643 161.65 28.3545 161.65 27.6924V27.1826C161.064 27.8447 160.294 28.1758 159.339 28.1758C158.196 28.1758 157.271 27.7305 156.562 26.8398C155.858 25.9434 155.507 24.7568 155.507 23.2803V23.1748ZM158.047 23.3594C158.047 24.2207 158.22 24.8975 158.565 25.3896C158.911 25.876 159.386 26.1191 159.989 26.1191C160.763 26.1191 161.316 25.8291 161.65 25.249V21.25C161.311 20.6699 160.763 20.3799 160.007 20.3799C159.397 20.3799 158.917 20.6289 158.565 21.127C158.22 21.625 158.047 22.3691 158.047 23.3594Z" fill="white"/>
<path d="M5.56348 31.113V41.1383H17.2708V31.113C17.2708 30.624 16.6222 30.2277 15.8221 30.2277H7.0122C6.21204 30.2277 5.56348 30.624 5.56348 31.113Z" fill="#F6E266"/>
<path d="M21.9507 26.8202V41.1382H33.658V26.8202C33.658 26.3312 33.0094 25.9349 32.2093 25.9349H23.3994C22.5992 25.935 21.9507 26.3313 21.9507 26.8202Z" fill="#E49542"/>
<path d="M38.3423 21.4544V41.1382H50.0496V21.4544C50.0496 20.9654 49.401 20.569 48.6009 20.569H39.791C38.991 20.5691 38.3423 20.9655 38.3423 21.4544Z" fill="#9DC6FB"/>
<path d="M54.7295 17.8771V41.1382H66.4368V17.8771C66.4368 17.3882 65.7882 16.9918 64.9881 16.9918H56.1782C55.3782 16.9919 54.7295 17.3882 54.7295 17.8771Z" fill="#C8EA73"/>
<path d="M38.3423 31.6374V41.1382H50.0496V28.1622C46.4535 29.4149 42.5302 30.5854 38.3423 31.6374Z" fill="#80B4FB"/>
<path d="M31.0093 33.2993C27.9583 33.9189 24.93 34.4469 21.9507 34.8865V41.1382H33.658V32.7392C32.7844 32.9312 31.9016 33.118 31.0093 33.2993Z" fill="#E28424"/>
<path d="M5.56348 36.4459V41.1382H17.2708V35.5101C13.2208 35.99 9.29426 36.3001 5.56348 36.4459Z" fill="#F1D333"/>
<path d="M54.7295 26.4109V41.1382H66.4368V20.4639C63.3802 22.511 59.4168 24.5281 54.7295 26.4109Z" fill="#B7E445"/>
<path d="M0 43.1147V42.0235C0 41.5345 0.648562 41.1382 1.44872 41.1382H70.5513C71.3514 41.1382 72 41.5345 72 42.0235V43.1147C72 43.6036 71.3514 44 70.5513 44H1.44872C0.648562 44 0 43.6036 0 43.1147H0Z" fill="#4073C8"/>
<path d="M64.097 0H53.8384C53.0383 0 52.3897 0.396344 52.3897 0.885328V1.97648C52.3897 2.46546 53.0383 2.8618 53.8384 2.8618H58.4442L46.1516 10.374H36.4385C35.7822 10.374 35.156 10.5424 34.7124 10.838L20.9206 20.0325H6.86278C6.06262 20.0325 5.41406 20.4289 5.41406 20.9179V22.009C5.41406 22.498 6.06262 22.8944 6.86278 22.8944H21.9507C22.607 22.8944 23.2332 22.726 23.6767 22.4304L37.4685 13.2358H47.1215C47.7425 13.2358 48.338 13.0851 48.7772 12.8167L61.7556 4.88546V7.70009C61.7556 8.18907 62.4042 8.58541 63.2043 8.58541H64.9898C65.79 8.58541 66.4386 8.18907 66.4386 7.70009V1.43086C66.4384 0.640664 65.3902 0 64.097 0V0Z" fill="#DD5790"/>
</svg>
