<?xml version="1.0" encoding="utf-8"?>
<!-- Generator: Adobe Illustrator 23.1.1, SVG Export Plug-In . SVG Version: 6.00 Build 0)  -->
<svg version="1.1" id="Layer_1" xmlns="http://www.w3.org/2000/svg" xmlns:xlink="http://www.w3.org/1999/xlink" x="0px" y="0px"
	 viewBox="0 0 221 118" style="enable-background:new 0 0 221 118;" xml:space="preserve">
<style type="text/css">
	.st0{fill-rule:evenodd;clip-rule:evenodd;fill:#EDECF5;fill-opacity:0.74;}
	.st1{fill-rule:evenodd;clip-rule:evenodd;fill:#8D97B7;}
	.st2{fill:url(#SVGID_1_);}
	.st3{fill-rule:evenodd;clip-rule:evenodd;fill:#959FBF;fill-opacity:0.55;}
	.st4{fill-rule:evenodd;clip-rule:evenodd;fill:#B9C6D7;}
	.st5{fill:none;stroke:#859BB9;stroke-width:2;stroke-linecap:round;}
	.st6{fill:#B9C6D7;}
	.st7{fill-rule:evenodd;clip-rule:evenodd;fill:#859BB9;}
	.st8{fill:#FFFFFF;filter:url(#Adobe_OpacityMaskFilter);}
	.st9{mask:url(#mask0_1_);}
	.st10{fill:#FFFFFF;filter:url(#Adobe_OpacityMaskFilter_1_);}
	.st11{mask:url(#mask1_1_);}
	.st12{fill:#FFFFFF;filter:url(#Adobe_OpacityMaskFilter_2_);}
	.st13{mask:url(#mask2_1_);}
	.st14{fill-rule:evenodd;clip-rule:evenodd;fill:url(#SVGID_2_);}
	.st15{fill:#FFFFFF;filter:url(#Adobe_OpacityMaskFilter_3_);}
	.st16{mask:url(#mask3_1_);}
	.st17{fill-rule:evenodd;clip-rule:evenodd;fill:#B9B6F1;}
	.st18{fill-rule:evenodd;clip-rule:evenodd;fill:#FFFFFF;fill-opacity:0.46;}
	.st19{fill-rule:evenodd;clip-rule:evenodd;fill:#605E84;}
	.st20{fill:#FFFFFF;filter:url(#Adobe_OpacityMaskFilter_4_);}
	.st21{mask:url(#mask4_1_);}
	.st22{fill-rule:evenodd;clip-rule:evenodd;fill:#181548;}
	.st23{fill:#FFFFFF;filter:url(#Adobe_OpacityMaskFilter_5_);}
	.st24{mask:url(#mask5_1_);}
	.st25{opacity:0.5438;fill:#EDEBFF;enable-background:new    ;}
	.st26{opacity:0.8538;fill-rule:evenodd;clip-rule:evenodd;fill:#8282DC;enable-background:new    ;}
	.st27{opacity:0.6089;fill-rule:evenodd;clip-rule:evenodd;fill:#B9B6F1;enable-background:new    ;}
	.st28{fill-rule:evenodd;clip-rule:evenodd;fill:#959FBF;fill-opacity:0.34;}
	.st29{fill-rule:evenodd;clip-rule:evenodd;fill:#D4D4E7;}
	.st30{fill:none;stroke:#8080AD;stroke-width:1.7;stroke-linecap:round;stroke-linejoin:round;}
</style>
<path class="st0" d="M47.1,86H0.5c0,0,3.2-46.5,22-53.2s16.8,10.9,47.2,10.9s49.9,9.9,67.2-3.2c17.2-13.2,22.4-28.6,38.4-24.6
	c16,4,14.9,22.4,20.2,25.4c5.4,3,14.1-0.7,20,16.7c5.9,17.4,5,27.1,5,27.1h-83.2L47.1,86z"/>
<path class="st1" d="M67.1,23.1c-3.7,0-5.6,0.5-5.6,1.6c0,1.1,0,25.2,0,72.5c0,0-0.2,2.4,4.8,2.3S68.7,23.9,67.1,23.1z"/>
<linearGradient id="SVGID_1_" gradientUnits="userSpaceOnUse" x1="147.3047" y1="87.7076" x2="73.8429" y2="28.0392" gradientTransform="matrix(1 0 0 -1 0 120)">
	<stop  offset="0" style="stop-color:#E1E4EB"/>
	<stop  offset="1" style="stop-color:#FFFFFF"/>
</linearGradient>
<path class="st2" d="M154.2,23.1h-85c-3.8,0-6.9,3.1-6.9,6.9v62.5c0,3.8,3.1,6.9,6.9,6.9h85c3.8,0,6.9-3.1,6.9-6.9V30
	C161.1,26.1,158,23.1,154.2,23.1z"/>
<path class="st3" d="M62.2,99h97.5c1.2,0,2.2,0.6,2.2,1.4v0c0,0.8-1,1.4-2.2,1.4H62.2c-1.2,0-2.2-0.6-2.2-1.4v0
	C60,99.6,61,99,62.2,99z"/>
<path class="st4" d="M105.8,40.3h37.6c0.5,0,0.9,0.4,0.9,0.9v2.6c0,0.5-0.4,0.9-0.9,0.9h-37.6c-0.5,0-0.9-0.4-0.9-0.9v-2.6
	C104.9,40.7,105.3,40.3,105.8,40.3z"/>
<path class="st4" d="M105.8,49.8h26.5c0.5,0,0.9,0.4,0.9,0.9v2.6c0,0.5-0.4,0.9-0.9,0.9h-26.5c-0.5,0-0.9-0.4-0.9-0.9v-2.6
	C104.9,50.2,105.3,49.8,105.8,49.8z"/>
<path class="st4" d="M105.8,59.2h12.8c0.5,0,0.9,0.4,0.9,0.9v2.6c0,0.5-0.4,0.9-0.9,0.9h-12.8c-0.5,0-0.9-0.4-0.9-0.9v-2.6
	C104.9,59.6,105.3,59.2,105.8,59.2z"/>
<path class="st5" d="M79,86.9c8.7-11,16.7-12.4,24-4.4c10.9,12.1,10.2-5.9,23.2-0.8c8.7,3.4,16,1.9,21.8-4.4"/>
<path class="st6" d="M85.9,61.9c6.2,0,11.2-5,11.2-11.2c0-6.2-5-11.2-11.2-11.2c-6.2,0-11.2,5-11.2,11.2
	C74.7,56.9,79.7,61.9,85.9,61.9z"/>
<path class="st7" d="M86.3,54c0.9,0,1.8-0.5,2.2-1.2l0.9,0.5c-0.7,1-1.6,1.7-3.1,1.7c-1.9,0-3.6-1.2-4-3.1h-0.6v-0.7h0.5
	c0-0.2,0-0.4,0-0.6c0-0.2,0-0.4,0-0.6h-0.5v-0.7h0.7c0.5-1.9,2.1-3.1,4-3.1c1.4,0,2.4,0.7,3.1,1.7l-0.9,0.5
	c-0.5-0.7-1.3-1.2-2.2-1.2c-1.4,0-2.5,0.8-2.9,2.2H87v0.7h-3.8c0,0.2,0,0.4,0,0.6c0,0.2,0,0.4,0,0.6H87v0.7h-3.7
	C83.8,53.2,84.9,54,86.3,54z"/>
<defs>
	<filter id="Adobe_OpacityMaskFilter" filterUnits="userSpaceOnUse" x="-76.4" y="-88.8" width="305.6" height="245.9">
		<feColorMatrix  type="matrix" values="1 0 0 0 0  0 1 0 0 0  0 0 1 0 0  0 0 0 1 0"/>
	</filter>
</defs>
<mask maskUnits="userSpaceOnUse" x="-76.4" y="-88.8" width="305.6" height="245.9" id="mask0_1_">
	<path class="st8" d="M50.5,114.7c0,0,4.2-0.3,4.2,0.1c0,0.4-1.2,1.8-3.2,2.6c-0.8,0.3-1.6,0.5-2.4,0.7c-0.3,0.1-0.6,0-0.8-0.2
		c-0.2-0.2-0.3-0.5-0.3-0.8l0.1-2.2L50.5,114.7z"/>
</mask>
<g class="st9">
	<path class="st7" d="M-76.4,157.2h305.6V-88.8H-76.4V157.2z"/>
</g>
<defs>
	<filter id="Adobe_OpacityMaskFilter_1_" filterUnits="userSpaceOnUse" x="-80.3" y="-64.6" width="316.3" height="216.6">
		<feColorMatrix  type="matrix" values="1 0 0 0 0  0 1 0 0 0  0 0 1 0 0  0 0 0 1 0"/>
	</filter>
</defs>
<mask maskUnits="userSpaceOnUse" x="-80.3" y="-64.6" width="316.3" height="216.6" id="mask1_1_">
	<path class="st10" d="M44,115c0,0,3.9-0.3,3.9,0.1s-1.1,1.4-3,2c-0.9,0.3-1.8,0.4-2.7,0.5c-0.3,0-0.5-0.1-0.7-0.2
		c-0.2-0.2-0.3-0.4-0.3-0.6l0.1-1.6L44,115z"/>
</mask>
<g class="st11">
	<path class="st7" d="M-80.3,152.1h316.3V-64.6H-80.3V152.1z"/>
</g>
<path class="st4" d="M53.1,80.7c0,0,0.2,13.1-0.6,20.9c-0.8,7.8-1.5,12.9-1.5,12.9c-0.6,0.4-1.3,0.6-2,0.5l-1-0.1
	c0,0,0.3-14.1,0.4-17.6c0-3.5-1.3-9.3-1.3-9.3s-0.4,8.9-1.1,14.4c-0.7,5.5-2,12.6-2,12.6s-0.1,0.4-1.4,0.2c-1.3-0.1-0.8-0.4-0.8-0.4
	s0.4-15.6,0.2-20.6c-0.2-4.9-1.2-8.8-1-12.4C41.2,78.4,53.1,80.7,53.1,80.7z"/>
<defs>
	<filter id="Adobe_OpacityMaskFilter_2_" filterUnits="userSpaceOnUse" x="-57.9" y="-48.9" width="264.7" height="180.7">
		<feColorMatrix  type="matrix" values="1 0 0 0 0  0 1 0 0 0  0 0 1 0 0  0 0 0 1 0"/>
	</filter>
</defs>
<mask maskUnits="userSpaceOnUse" x="-57.9" y="-48.9" width="264.7" height="180.7" id="mask2_1_">
	<path class="st12" d="M47.6,43h22.1c1.1,0,2,0.9,2,1.9v24.3c0,1.1-0.9,1.9-2,1.9H47.6c-1.1,0-2-0.9-2-1.9V44.9
		C45.6,43.8,46.5,43,47.6,43z"/>
</mask>
<g class="st13">
	
		<linearGradient id="SVGID_2_" gradientUnits="userSpaceOnUse" x1="63.1874" y1="60.3418" x2="67.486" y2="67.3107" gradientTransform="matrix(1 0 0 -1 0 120)">
		<stop  offset="0" style="stop-color:#29E6BE"/>
		<stop  offset="1" style="stop-color:#012418"/>
	</linearGradient>
	<path class="st14" d="M-57.9,131.8h264.7V-48.9H-57.9V131.8z"/>
</g>
<defs>
	<filter id="Adobe_OpacityMaskFilter_3_" filterUnits="userSpaceOnUse" x="-56.4" y="-48.9" width="261.5" height="180.7">
		<feColorMatrix  type="matrix" values="1 0 0 0 0  0 1 0 0 0  0 0 1 0 0  0 0 0 1 0"/>
	</filter>
</defs>
<mask maskUnits="userSpaceOnUse" x="-56.4" y="-48.9" width="261.5" height="180.7" id="mask3_1_">
	<path class="st15" d="M48.9,43h20.9c1.1,0,2,0.8,2,1.9v24.4c0,1-0.9,1.9-2,1.9H48.9c-1.1,0-2-0.8-2-1.9V44.8
		C46.9,43.8,47.8,43,48.9,43z"/>
</mask>
<g class="st16">
	<path class="st17" d="M-56.4,131.8h261.5V-48.9H-56.4V131.8z"/>
</g>
<path class="st18" d="M70.5,44.8c0,0.4-0.3,0.6-0.7,0.6c-0.4,0-0.7-0.3-0.7-0.6c0-0.4,0.3-0.6,0.7-0.6
	C70.2,44.2,70.5,44.5,70.5,44.8z"/>
<path class="st18" d="M67.9,44.8c0,0.4-0.3,0.6-0.7,0.6c-0.4,0-0.7-0.3-0.7-0.6c0-0.4,0.3-0.6,0.7-0.6
	C67.6,44.2,67.9,44.5,67.9,44.8z"/>
<path class="st19" d="M58.6,68.5c0,0,1.4-0.7,2.8-1.6c1.4-0.8,6.2-3,6.8-3.5c0.6-0.5,0.9-0.5,1-1.2c0.1-0.7,0.5-0.7,0.7-1.4
	c0.2-0.7,0.5-1.2,0.8-1.1c0.3,0.1-0.4,1.6-0.3,2.3c0.1,0.6,1.2-0.2,1.4-0.3c0.3-0.2,0.5-2.2,0.5-2.2s0.8,2.2,0.5,2.8
	c-0.3,0.6-0.3,1.4-0.3,1.7c-0.1,0.3-3.4,1.8-6.7,4c-3.2,2.1-6.2,5.3-8.5,4.3C55,70.9,58.6,68.5,58.6,68.5z"/>
<defs>
	<filter id="Adobe_OpacityMaskFilter_4_" filterUnits="userSpaceOnUse" x="-69.9" y="-70.8" width="291.7" height="222.2">
		<feColorMatrix  type="matrix" values="1 0 0 0 0  0 1 0 0 0  0 0 1 0 0  0 0 0 1 0"/>
	</filter>
</defs>
<mask maskUnits="userSpaceOnUse" x="-69.9" y="-70.8" width="291.7" height="222.2" id="mask4_1_">
	<path class="st20" d="M44.1,56.4c0.3-0.1,1.3-1.1,4.6,0.6c3.3,1.6,5.4,4.6,7.2,6.1c1.8,1.5,4,3.5,4,3.5s0,2.7-0.6,3.7
		c-0.3,0.6-0.8,1-1.5,1.1l-5.2-3.6c0,0,0.9,7.6,1.4,9.5c0.3,1.2,0.3,2.5,0.2,3.8c-2.8,1-5.7,1.4-8.7,1.2c-4.5-0.4-5.1-0.8-5.1-0.8
		s0.3-6.2,0.8-10.9c0.2-1.7,0-6.4,0.1-9C41.5,58.9,43,56.8,44.1,56.4z"/>
</mask>
<g class="st21">
	<path class="st7" d="M-69.9,151.4h291.7V-70.8H-69.9V151.4z"/>
</g>
<path class="st19" d="M46.6,55.2c0.7-0.4,1.1-1,1.4-1.7c0-0.2,0-0.3,0-0.5c0,0-0.7,0.1-0.9-1.1c-0.2-1.2,0.5-1.5,0.9-1.4
	c0.4,0.1,0.2,1.2,0.5,1c0.3-0.2-0.3-1.1,0.4-1.6c0.7-0.5,1.8-1.1,1.8-1.1c0.1,0.8,0.2,1.6,0.2,2.4c0,0.6,0.1,1.1,0.3,1.7
	c0.1,0.3-0.2,0.5-0.2,0.9c-0.1,0.4,0.1,2.1-0.8,2.1c-0.9,0-1.2,0.1-1.6,0.6c-0.4,0.5-1.1,2.2-1.1,2.2S46.8,57.4,46,57L46.6,55.2z"/>
<path class="st22" d="M50.6,48.7c0,0,1.4-1.2,1-2.8c-0.5-1.6-3.3-2.9-5.5-1.2c-0.4,0.3-1.1,0.8-1.8,1.4c-1-0.4-2-0.9-3-0.7
	c-0.3,0.1-0.7,0.2-1,0.4c-0.9,0.6-1.5,1.5-1.7,2.6c-0.1,1.1,0.3,2.2,1.2,2.8c0.4,0.2,0.8,0.3,1.3,0.3c-0.1,1.9,0.3,3.9-0.8,5.2
	c-0.7,1-1.3,2-1.8,3c-0.8,1.8-0.9,2.9-0.3,4.9c0.6,1.9,2.2,3,4.1,3.1c1.4,0,2.7-0.6,3.5-1.7c0.8-1.1-0.1-2.2,0.1-3.5
	c0.1-0.8,1-1.4,1.5-2c0.3-0.3,0.5-0.7,0.7-1.1c0.3-0.9-0.1-1.9-0.7-2.7c-0.3-0.4-1-0.9-0.5-1.5c0.3-0.4,0.6-0.9,0.8-1.5
	c0.1-0.3,0.1-0.6,0.1-0.9c0-0.1-0.3-0.1-0.4-0.1c-0.3-0.3-0.5-0.7-0.6-1.1c-0.1-0.5,0.1-1,0.6-1.2c0.1-0.1,0.3,0,0.4,0
	c0.3,0.2,0.2,1,0.5,1.1c0.3-0.2,0.1-0.8,0.1-1.1c0-0.4,0.4-0.7,0.7-0.9C49.6,49.4,50.2,49,50.6,48.7z"/>
<defs>
	<filter id="Adobe_OpacityMaskFilter_5_" filterUnits="userSpaceOnUse" x="53.1" y="47.2" width="12.9" height="18.1">
		<feColorMatrix  type="matrix" values="1 0 0 0 0  0 1 0 0 0  0 0 1 0 0  0 0 0 1 0"/>
	</filter>
</defs>
<mask maskUnits="userSpaceOnUse" x="53.1" y="47.2" width="12.9" height="18.1" id="mask5_1_">
	<path class="st23" d="M59.6,49.8c3.6,0,6.5,2.9,6.5,6.5c0,3.6-2.9,6.5-6.5,6.5s-6.5-2.9-6.5-6.5C53.1,52.7,56,49.8,59.6,49.8z
		 M59.6,59.3c1.7,0,3.1-1.4,3.1-3.1c0-1.7-1.4-3.1-3.1-3.1c-1.7,0-3.1,1.4-3.1,3.1C56.5,58,57.9,59.3,59.6,59.3z"/>
</mask>
<g class="st24">
	<path class="st25" d="M59.6,49.8c3.6,0,6.5,2.9,6.5,6.5c0,3.6-2.9,6.5-6.5,6.5s-6.5-2.9-6.5-6.5C53.1,52.7,56,49.8,59.6,49.8z
		 M59.6,59.3c1.7,0,3.1-1.4,3.1-3.1c0-1.7-1.4-3.1-3.1-3.1c-1.7,0-3.1,1.4-3.1,3.1C56.5,58,57.9,59.3,59.6,59.3z"/>
	<path class="st26" d="M61,55.9l-2.4,2.7l-2.9,5.3c0,0,4.2,3.1,7.8,0.1c3.6-3,2.6-9.4,2.1-10.5l-0.5-1.1L61,55.9z"/>
	<path class="st27" d="M60.9,54.3c0-0.2,0.6-7.1,0.6-7.1l4.6,4.2L62.4,55L60.9,54.3z"/>
</g>
<path class="st28" d="M188.7,92.1h23.9c0.6,0,1,0.4,1,0.9c0,0.5-0.5,0.9-1,0.9h-23.9c-0.6,0-1-0.4-1-0.9
	C187.7,92.5,188.2,92.1,188.7,92.1z"/>
<path class="st29" d="M198.5,51.5c7,0,22-2.9,22-10.4c0-7.5-7.9-4.3-9.9-6.4c-3.7-4.1,8.1-5.1,7.3-12.8c-0.8-7.8-11.1-3.6-12.8-8.1
	c-2.3-6.2,4.8-3.1,4.1-9.4c-0.7-6.3-26.9-3.8-26.1,1.5c0.8,5.3,5.6,2.5,6.1,7.2c0.3,2.9-1.9,3.8-5.5,6.2c-3.6,2.3-5.4,6.7-2.9,10.1
	c1.7,2.3,8.5,2.5,8.2,5.3c-0.3,2.9-10.6,1.9-9.9,9.3C179.6,49,182.3,51.5,198.5,51.5z"/>
<path class="st30" d="M201.5,92.9c0,0-4.3-52-3.3-84.5"/>
<path class="st30" d="M208.4,42.5c-2.4,1.1-10,3.8-10,3.8L186.9,42"/>
<path class="st30" d="M208.4,25.6c-2.3,1.1-10.6,4.3-10.6,4.3l-10.1-3.6"/>
</svg>
