<?xml version="1.0" encoding="utf-8"?>
<!-- Generator: Adobe Illustrator 23.1.1, SVG Export Plug-In . SVG Version: 6.00 Build 0)  -->
<svg version="1.1" id="Layer_1" xmlns="http://www.w3.org/2000/svg" xmlns:xlink="http://www.w3.org/1999/xlink" x="0px" y="0px"
	 viewBox="0 0 220 103.5" style="enable-background:new 0 0 220 103.5;" xml:space="preserve">
<style type="text/css">
	.st0{clip-path:url(#SVGID_2_);}
	.st1{clip-path:url(#SVGID_4_);}
	.st2{opacity:0.74;fill:#EDECF5;enable-background:new    ;}
	.st3{clip-path:url(#SVGID_6_);}
	.st4{clip-path:url(#SVGID_8_);}
	.st5{fill:#859BB9;}
	.st6{clip-path:url(#SVGID_10_);}
	.st7{clip-path:url(#SVGID_12_);}
	.st8{clip-path:url(#SVGID_14_);}
	.st9{clip-path:url(#SVGID_16_);}
	.st10{clip-path:url(#SVGID_18_);}
	.st11{opacity:0.44;fill:#959FBF;enable-background:new    ;}
	.st12{clip-path:url(#SVGID_20_);}
	.st13{clip-path:url(#SVGID_22_);}
	.st14{clip-path:url(#SVGID_24_);}
	.st15{clip-path:url(#SVGID_26_);}
	.st16{fill:#605E84;}
	.st17{clip-path:url(#SVGID_28_);}
	.st18{clip-path:url(#SVGID_30_);}
	.st19{fill:#F1F5FA;}
	.st20{clip-path:url(#SVGID_32_);}
	.st21{clip-path:url(#SVGID_34_);}
	.st22{fill:#181548;}
	.st23{clip-path:url(#SVGID_36_);}
	.st24{clip-path:url(#SVGID_38_);}
	.st25{clip-path:url(#SVGID_40_);}
	.st26{clip-path:url(#SVGID_42_);}
	.st27{fill:#B9B6F1;}
	.st28{fill:#8282DC;}
	.st29{clip-path:url(#SVGID_44_);}
	.st30{clip-path:url(#SVGID_46_);}
	.st31{clip-path:url(#SVGID_48_);}
	.st32{clip-path:url(#SVGID_50_);}
	.st33{clip-path:url(#SVGID_52_);}
	.st34{opacity:0.5;fill:#605E84;enable-background:new    ;}
	.st35{clip-path:url(#SVGID_54_);}
	.st36{clip-path:url(#SVGID_56_);}
	.st37{clip-path:url(#SVGID_58_);}
	.st38{clip-path:url(#SVGID_60_);}
	.st39{fill:#B9C6D7;}
	.st40{clip-path:url(#SVGID_62_);}
	.st41{clip-path:url(#SVGID_64_);}
	.st42{clip-path:url(#SVGID_66_);}
	.st43{clip-path:url(#SVGID_68_);}
	.st44{clip-path:url(#SVGID_70_);}
	.st45{clip-path:url(#SVGID_72_);}
	.st46{clip-path:url(#SVGID_74_);}
	.st47{fill:#A9A8C8;}
	.st48{clip-path:url(#SVGID_76_);}
	.st49{clip-path:url(#SVGID_78_);}
	.st50{fill:#D4D4E7;}
	.st51{clip-path:url(#SVGID_80_);}
	.st52{clip-path:url(#SVGID_82_);}
	.st53{clip-path:url(#SVGID_84_);}
	.st54{clip-path:url(#SVGID_86_);}
	.st55{clip-path:url(#SVGID_88_);}
	.st56{clip-path:url(#SVGID_90_);}
	.st57{clip-path:url(#SVGID_92_);}
	.st58{fill:none;stroke:#8080AD;stroke-width:1.7;stroke-linecap:round;stroke-linejoin:round;}
	.st59{clip-path:url(#SVGID_94_);}
	.st60{clip-path:url(#SVGID_96_);}
	.st61{clip-path:url(#SVGID_98_);}
	.st62{clip-path:url(#SVGID_100_);}
	.st63{clip-path:url(#SVGID_102_);}
</style>
<title>empty-to-do</title>
<g>
	<g>
		<defs>
			<path id="SVGID_1_" d="M46.6,87H0.1c0,0,3.2-46.5,22-53.2s16.8,10.9,47.2,10.9s49.9,10,67.2-3.2s22.4-28.6,38.4-24.6
				s14.9,22.4,20.2,25.4c5.4,3,14.1-0.7,20,16.7s5,27.1,5,27.1h-83.2L46.6,87z"/>
		</defs>
		<clipPath id="SVGID_2_">
			<use xlink:href="#SVGID_1_"  style="overflow:visible;"/>
		</clipPath>
		<g class="st0">
			<g>
				<defs>
					<rect id="SVGID_3_" x="-814.3" y="-139.9" width="1242.3" height="950.7"/>
				</defs>
				<clipPath id="SVGID_4_">
					<use xlink:href="#SVGID_3_"  style="overflow:visible;"/>
				</clipPath>
				<g class="st1">
					<rect x="-4.3" y="12" class="st2" width="228.6" height="79.4"/>
				</g>
			</g>
		</g>
	</g>
	<g>
		<defs>
			<path id="SVGID_5_" d="M88.9,90.9c0,0,1.8,5,1.3,5.2c-0.6,0.1-4.2-3.5-4.8-4.2l-0.6-0.6l2.1-2.8L88.9,90.9z"/>
		</defs>
		<clipPath id="SVGID_6_">
			<use xlink:href="#SVGID_5_"  style="overflow:visible;"/>
		</clipPath>
		<g class="st3">
			<g>
				<defs>
					<rect id="SVGID_7_" x="-814.3" y="-139.9" width="1242.3" height="950.7"/>
				</defs>
				<clipPath id="SVGID_8_">
					<use xlink:href="#SVGID_7_"  style="overflow:visible;"/>
				</clipPath>
				<g class="st4">
					<rect x="80.5" y="84.2" class="st5" width="14" height="16.3"/>
				</g>
			</g>
		</g>
	</g>
	<g>
		<defs>
			<polygon id="SVGID_9_" points="79.8,98.9 112.9,98.7 112.9,95.2 79.8,95.3 			"/>
		</defs>
		<clipPath id="SVGID_10_">
			<use xlink:href="#SVGID_9_"  style="overflow:visible;"/>
		</clipPath>
		<g class="st6">
			<g>
				<defs>
					<rect id="SVGID_11_" x="-814.3" y="-139.9" width="1242.3" height="950.7"/>
				</defs>
				<clipPath id="SVGID_12_">
					<use xlink:href="#SVGID_11_"  style="overflow:visible;"/>
				</clipPath>
				<g class="st7">
					<g>
						<g>
							<defs>
								<rect id="SVGID_13_" x="79.4" y="94.8" width="33.6" height="4.3"/>
							</defs>
							<clipPath id="SVGID_14_">
								<use xlink:href="#SVGID_13_"  style="overflow:visible;"/>
							</clipPath>
							<g class="st8">
								<g>
									<defs>
										<path id="SVGID_15_" d="M81.3,98.8l30.1-0.1c0.9-0.1,1.5-0.8,1.4-1.7c-0.1-0.8-0.7-1.4-1.4-1.4l-30.1,0.1
											c-0.9,0.1-1.5,0.8-1.4,1.7C79.9,98.2,80.5,98.8,81.3,98.8z"/>
									</defs>
									<clipPath id="SVGID_16_">
										<use xlink:href="#SVGID_15_"  style="overflow:visible;"/>
									</clipPath>
									<g class="st9">
										<g>
											<defs>
												<rect id="SVGID_17_" x="79.4" y="94.8" width="33.6" height="4.3"/>
											</defs>
											<clipPath id="SVGID_18_">
												<use xlink:href="#SVGID_17_"  style="overflow:visible;"/>
											</clipPath>
											<g class="st10">
												<rect x="75.4" y="91.3" class="st11" width="41.7" height="11.9"/>
											</g>
										</g>
									</g>
								</g>
							</g>
						</g>
					</g>
				</g>
			</g>
		</g>
	</g>
	<g>
		<defs>
			<path id="SVGID_19_" d="M105.4,92.8c0,0,4.6,3.1,4.3,3.3c-0.3,0.3-5.2-0.2-6.4-0.2c-1.2-0.1-0.8-2.4-0.5-3.8
				C103.1,90.6,105.8,92.9,105.4,92.8z"/>
		</defs>
		<clipPath id="SVGID_20_">
			<use xlink:href="#SVGID_19_"  style="overflow:visible;"/>
		</clipPath>
		<g class="st12">
			<g>
				<defs>
					<rect id="SVGID_21_" x="-814.3" y="-139.9" width="1242.3" height="950.7"/>
				</defs>
				<clipPath id="SVGID_22_">
					<use xlink:href="#SVGID_21_"  style="overflow:visible;"/>
				</clipPath>
				<g class="st13">
					<rect x="98.2" y="87.3" class="st5" width="15.9" height="13.2"/>
				</g>
			</g>
		</g>
	</g>
	<g>
		<defs>
			<path id="SVGID_23_" d="M118.7,31.2l5.2,0.8c-2,0.2-3.9,0.7-5.7,1.5c-2.3,1.2-7.4,4.4-7.4,4.4l-0.2-2.7
				C110.7,35.2,115.3,30.2,118.7,31.2z"/>
		</defs>
		<clipPath id="SVGID_24_">
			<use xlink:href="#SVGID_23_"  style="overflow:visible;"/>
		</clipPath>
		<g class="st14">
			<g>
				<defs>
					<rect id="SVGID_25_" x="-814.3" y="-139.9" width="1242.3" height="950.7"/>
				</defs>
				<clipPath id="SVGID_26_">
					<use xlink:href="#SVGID_25_"  style="overflow:visible;"/>
				</clipPath>
				<g class="st15">
					<rect x="106.3" y="26.8" class="st16" width="21.9" height="15.4"/>
				</g>
			</g>
		</g>
	</g>
	<g>
		<defs>
			<path id="SVGID_27_" d="M110.5,34.4c0,0-7.1,1.1-9.4,0.9s-4.8-0.9-7.4,2.2s-1.3,13.6-0.6,19.7c0,0,7.9,0.4,12.6-0.5l-1.1-12.7
				c0.7,0,1.4-0.2,1.9-0.6c0.9-0.7,3.8-5,3.8-5L110.5,34.4z"/>
		</defs>
		<clipPath id="SVGID_28_">
			<use xlink:href="#SVGID_27_"  style="overflow:visible;"/>
		</clipPath>
		<g class="st17">
			<g>
				<defs>
					<rect id="SVGID_29_" x="-814.3" y="-139.9" width="1242.3" height="950.7"/>
				</defs>
				<clipPath id="SVGID_30_">
					<use xlink:href="#SVGID_29_"  style="overflow:visible;"/>
				</clipPath>
				<g class="st18">
					<rect x="87.9" y="30.1" class="st19" width="27" height="31.6"/>
				</g>
			</g>
		</g>
	</g>
	<g>
		<defs>
			<path id="SVGID_31_" d="M101.3,25.9c0.6-0.4,0.8-1.2,0.3-1.8c0,0,0,0,0,0c-0.6-1.3-2.5-1.6-4.2-0.7c-1.8,0.9-2.7,1.1-2.7,2.6
				s-0.4,4.8,2.6,5.6C100.3,32.2,101.3,25.9,101.3,25.9z"/>
		</defs>
		<clipPath id="SVGID_32_">
			<use xlink:href="#SVGID_31_"  style="overflow:visible;"/>
		</clipPath>
		<g class="st20">
			<g>
				<defs>
					<rect id="SVGID_33_" x="-814.3" y="-139.9" width="1242.3" height="950.7"/>
				</defs>
				<clipPath id="SVGID_34_">
					<use xlink:href="#SVGID_33_"  style="overflow:visible;"/>
				</clipPath>
				<g class="st21">
					<rect x="90.4" y="18.5" class="st22" width="15.8" height="17.4"/>
				</g>
			</g>
		</g>
	</g>
	<g>
		<defs>
			<path id="SVGID_35_" d="M101.3,25.9c0.4,1.4,0.7,2.9,0.8,4.4c0.1,2.1-0.7,2-1,2c-0.3,0.1-0.5,0.1-0.5,0.1c0,0.8,0.1,1.5,0.3,2.3
				c0.4,1,0.9,1.1,0.9,1.1s0.2,1.6-1.8,1.7c-2.1,0.1-3.3-2-3.3-2c0.5-1.4,0.5-2.9,0.2-4.3c-0.3,0-0.5,0-0.8-0.2
				c-0.5-0.4-0.7-1.1-0.5-1.7c0.2-0.3,0.9,0.3,1,0c0.1-0.3-0.6-1.9-0.1-2.6c0.5-0.7,1.1-0.6,2.3-0.4
				C99.8,26.2,100.6,26.1,101.3,25.9z"/>
		</defs>
		<clipPath id="SVGID_36_">
			<use xlink:href="#SVGID_35_"  style="overflow:visible;"/>
		</clipPath>
		<g class="st23">
			<g>
				<defs>
					<rect id="SVGID_37_" x="-814.3" y="-139.9" width="1242.3" height="950.7"/>
				</defs>
				<clipPath id="SVGID_38_">
					<use xlink:href="#SVGID_37_"  style="overflow:visible;"/>
				</clipPath>
				<g class="st24">
					<rect x="91.4" y="21.6" class="st16" width="15.1" height="20.2"/>
				</g>
			</g>
		</g>
	</g>
	<g>
		<defs>
			<ellipse id="SVGID_39_" cx="125.6" cy="19.7" rx="15.5" ry="15.5"/>
		</defs>
		<clipPath id="SVGID_40_">
			<use xlink:href="#SVGID_39_"  style="overflow:visible;"/>
		</clipPath>
		<g class="st25">
			<g>
				<defs>
					<rect id="SVGID_41_" x="-814.3" y="-139.9" width="1242.3" height="950.7"/>
				</defs>
				<clipPath id="SVGID_42_">
					<use xlink:href="#SVGID_41_"  style="overflow:visible;"/>
				</clipPath>
				<g class="st26">
					<rect x="105.8" y="-0.1" class="st27" width="39.6" height="39.6"/>
				</g>
			</g>
		</g>
	</g>
	<path class="st28" d="M123.3,26.2c-0.5,0-0.9-0.2-1.2-0.5l-4.1-4.1c-0.7-0.7-0.7-1.8,0-2.4c0.7-0.7,1.8-0.7,2.4,0l0,0l2.9,2.9
		l7.8-7.8c0.6-0.7,1.7-0.8,2.4-0.1c0.7,0.6,0.8,1.7,0.1,2.4c0,0-0.1,0.1-0.1,0.1l-9,9C124.2,26,123.8,26.2,123.3,26.2z"/>
	<g>
		<defs>
			<rect id="SVGID_43_" x="94.3" y="42.9" width="10.5" height="5.7"/>
		</defs>
		<clipPath id="SVGID_44_">
			<use xlink:href="#SVGID_43_"  style="overflow:visible;"/>
		</clipPath>
		<g class="st29">
			<g>
				<defs>
					<rect id="SVGID_45_" x="-814.3" y="-139.9" width="1242.3" height="950.7"/>
				</defs>
				<clipPath id="SVGID_46_">
					<use xlink:href="#SVGID_45_"  style="overflow:visible;"/>
				</clipPath>
				<g class="st30">
					<g>
						<g>
							<defs>
								<rect id="SVGID_47_" x="94.1" y="42.2" width="11.2" height="6.9"/>
							</defs>
							<clipPath id="SVGID_48_">
								<use xlink:href="#SVGID_47_"  style="overflow:visible;"/>
							</clipPath>
							<g class="st31">
								<g>
									<defs>
										<path id="SVGID_49_" d="M104.4,44.4c-2.1-0.1-4.3-0.3-6.4-0.6c-2.3-0.5-3.8-0.8-3.8-0.8s3.2,3,5.6,3.8
											c2.4,0.8,4.9,1.9,4.9,1.9L104.4,44.4z"/>
									</defs>
									<clipPath id="SVGID_50_">
										<use xlink:href="#SVGID_49_"  style="overflow:visible;"/>
									</clipPath>
									<g class="st32">
										<g>
											<defs>
												<rect id="SVGID_51_" x="94.1" y="42.2" width="11.2" height="6.9"/>
											</defs>
											<clipPath id="SVGID_52_">
												<use xlink:href="#SVGID_51_"  style="overflow:visible;"/>
											</clipPath>
											<g class="st33">
												<rect x="89.9" y="38.6" class="st34" width="19.1" height="14.4"/>
											</g>
										</g>
									</g>
								</g>
							</g>
						</g>
					</g>
				</g>
			</g>
		</g>
	</g>
	<g>
		<defs>
			<path id="SVGID_53_" d="M108,36.8c-0.9,1.1-1.9,2-3,2.9c-0.9,0.5-5.8,0-5.8,0c1.7-0.2,3.3-0.8,4.9-1.5c1-0.5,1.4-1.7,1.1-2.7
				l4.9-0.6L108,36.8z"/>
		</defs>
		<clipPath id="SVGID_54_">
			<use xlink:href="#SVGID_53_"  style="overflow:visible;"/>
		</clipPath>
		<g class="st35">
			<g>
				<defs>
					<rect id="SVGID_55_" x="-814.3" y="-139.9" width="1242.3" height="950.7"/>
				</defs>
				<clipPath id="SVGID_56_">
					<use xlink:href="#SVGID_55_"  style="overflow:visible;"/>
				</clipPath>
				<g class="st36">
					<rect x="94.8" y="30.6" class="st34" width="19.6" height="13.7"/>
				</g>
			</g>
		</g>
	</g>
	<g>
		<defs>
			<path id="SVGID_57_" d="M105.5,56.8c0,0,1,10.2,1.6,15.4c0.6,5.2-1.4,20.9-1.4,20.9c-0.7,0.1-1.4,0.2-2.1,0.2l-0.9-0.1
				c0,0-0.1-18.7-1-22.1c-0.9-3.4-1.9-8.6-1.9-8.6S100,72.7,99.1,75c-1,2.4-9.3,16.1-9.3,16.1c-0.7,0-1.4-0.3-1.8-0.8
				c-0.4-0.3-0.8-0.7-1.1-1.1c0,0,7.6-15.6,7.4-18.6s-0.7-13.5-0.7-13.5L105.5,56.8z"/>
		</defs>
		<clipPath id="SVGID_58_">
			<use xlink:href="#SVGID_57_"  style="overflow:visible;"/>
		</clipPath>
		<g class="st37">
			<g>
				<defs>
					<rect id="SVGID_59_" x="-814.3" y="-139.9" width="1242.3" height="950.7"/>
				</defs>
				<clipPath id="SVGID_60_">
					<use xlink:href="#SVGID_59_"  style="overflow:visible;"/>
				</clipPath>
				<g class="st38">
					<rect x="82.4" y="52.5" class="st39" width="29.1" height="45.1"/>
				</g>
			</g>
		</g>
	</g>
	<g>
		<defs>
			<path id="SVGID_61_" d="M108.7,36.6c0,0,4.8-5.1,5.2-6.5s0.9-1.5,1.6-2.4s1.1-0.9,1.3-0.6c0.1,0.4-1.2,2.2-0.7,2.4
				s2.7-0.4,4.1-0.4c1.4,0,1.5,0.3,1.3,0.6s-3.2,1.4-3.2,1.4c-1.9,1.4-3.7,3-5.2,4.9c-2.5,3.1-2.4,2.9-2.4,2.9
				C109.8,38.3,109.1,37.5,108.7,36.6z"/>
		</defs>
		<clipPath id="SVGID_62_">
			<use xlink:href="#SVGID_61_"  style="overflow:visible;"/>
		</clipPath>
		<g class="st40">
			<g>
				<defs>
					<rect id="SVGID_63_" x="-809.2" y="-139" width="1242.3" height="950.7"/>
				</defs>
				<clipPath id="SVGID_64_">
					<use xlink:href="#SVGID_63_"  style="overflow:visible;"/>
				</clipPath>
				<g class="st41">
					<rect x="109.5" y="24.2" class="st16" width="21.5" height="20.6"/>
				</g>
			</g>
		</g>
	</g>
	<g>
		<defs>
			<rect id="SVGID_65_" x="16.4" y="1.6" width="48.3" height="99.2"/>
		</defs>
		<clipPath id="SVGID_66_">
			<use xlink:href="#SVGID_65_"  style="overflow:visible;"/>
		</clipPath>
		<g class="st42">
			<g>
				<defs>
					<rect id="SVGID_67_" x="-814.3" y="-139.9" width="1242.3" height="950.7"/>
				</defs>
				<clipPath id="SVGID_68_">
					<use xlink:href="#SVGID_67_"  style="overflow:visible;"/>
				</clipPath>
				<g class="st43">
					<g>
						<g>
							<defs>
								<rect id="SVGID_69_" x="15.6" y="1.6" width="54.4" height="100.9"/>
							</defs>
							<clipPath id="SVGID_70_">
								<use xlink:href="#SVGID_69_"  style="overflow:visible;"/>
							</clipPath>
							<g class="st44">
								<g>
									<defs>
										<path id="SVGID_71_" d="M54.1,86.3c0,0-6.6-0.6-9.8-4.8s3.3-10.5,11.3-7.6C63.6,76.7,60.4,83.5,54.1,86.3z"/>
									</defs>
									<clipPath id="SVGID_72_">
										<use xlink:href="#SVGID_71_"  style="overflow:visible;"/>
									</clipPath>
									<g class="st45">
										<g>
											<defs>
												<rect id="SVGID_73_" x="16.4" y="1.6" width="48.3" height="99.2"/>
											</defs>
											<clipPath id="SVGID_74_">
												<use xlink:href="#SVGID_73_"  style="overflow:visible;"/>
											</clipPath>
											<g class="st46">
												<rect x="39.2" y="68.8" class="st47" width="25.5" height="21.8"/>
											</g>
										</g>
									</g>
								</g>
								<g>
									<defs>
										<path id="SVGID_75_" d="M57.7,39.3c0,0-7.5-3.5-11.5,9.2s-2.9,18.2-0.8,18.7c2.2,0.5,12.1-2.9,15-7S71.4,46.5,57.7,39.3z"
											/>
									</defs>
									<clipPath id="SVGID_76_">
										<use xlink:href="#SVGID_75_"  style="overflow:visible;"/>
									</clipPath>
									<g class="st48">
										<g>
											<defs>
												<rect id="SVGID_77_" x="16.4" y="1.6" width="48.3" height="99.2"/>
											</defs>
											<clipPath id="SVGID_78_">
												<use xlink:href="#SVGID_77_"  style="overflow:visible;"/>
											</clipPath>
											<g class="st49">
												<rect x="39.2" y="34.5" class="st50" width="30.6" height="37.1"/>
											</g>
										</g>
									</g>
								</g>
								<g>
									<defs>
										<path id="SVGID_79_" d="M37.6,50.5c2.8,0.1,7.2-11,7.7-13.8s2.2-4.6,1.1-6c-0.5-0.8-1.5-1.1-2.4-0.7c0,0,8.2-7.1,9-14.5
											c0.7-7.4-4-4.1-8.6,3.1l-4.7,7.2c0,0,4.9-14.1,6.6-19.1s-1.6-5.1-2.6-5.1s-2.7,2.7-4.1,4.8C39,5,37.6,4.1,36.1,4.2
											c-2.7,0.1-5.2,5.5-5.7,19.8C29.8,38.3,37.6,50.5,37.6,50.5z"/>
									</defs>
									<clipPath id="SVGID_80_">
										<use xlink:href="#SVGID_79_"  style="overflow:visible;"/>
									</clipPath>
									<g class="st51">
										<g>
											<defs>
												<rect id="SVGID_81_" x="16.4" y="1.6" width="48.3" height="99.2"/>
											</defs>
											<clipPath id="SVGID_82_">
												<use xlink:href="#SVGID_81_"  style="overflow:visible;"/>
											</clipPath>
											<g class="st52">
												<rect x="26" y="-2.7" class="st47" width="31.3" height="57.5"/>
											</g>
										</g>
									</g>
								</g>
								<g>
									<defs>
										<path id="SVGID_83_" d="M32.1,55.4c1.8-0.5,1.3-6.2,0-12.4c-1.3-6.1-7.4-13.2-9.1-13.6c-1.7-0.4-4.1,1.9-2.2,7.3
											c0,0-4.6-0.7-4.3,4.7S25.1,57.3,32.1,55.4z"/>
									</defs>
									<clipPath id="SVGID_84_">
										<use xlink:href="#SVGID_83_"  style="overflow:visible;"/>
									</clipPath>
									<g class="st53">
										<g>
											<defs>
												<rect id="SVGID_85_" x="16.4" y="1.6" width="48.3" height="99.2"/>
											</defs>
											<clipPath id="SVGID_86_">
												<use xlink:href="#SVGID_85_"  style="overflow:visible;"/>
											</clipPath>
											<g class="st54">
												<rect x="12.1" y="25" class="st50" width="25.5" height="34.9"/>
											</g>
										</g>
									</g>
								</g>
								<g>
									<defs>
										<path id="SVGID_87_" d="M36.2,71c0,0,0.2,8.8-5.4,13.6c-3.5,2.9-8.1,4.2-12.7,3.7c0,0-1.8-8.9,5.2-15.1
											C29,68.2,36.2,71,36.2,71z"/>
									</defs>
									<clipPath id="SVGID_88_">
										<use xlink:href="#SVGID_87_"  style="overflow:visible;"/>
									</clipPath>
									<g class="st55">
										<g>
											<defs>
												<rect id="SVGID_89_" x="16.4" y="1.6" width="48.3" height="99.2"/>
											</defs>
											<clipPath id="SVGID_90_">
												<use xlink:href="#SVGID_89_"  style="overflow:visible;"/>
											</clipPath>
											<g class="st56">
												<rect x="13.6" y="65.9" class="st50" width="26.9" height="26.9"/>
											</g>
										</g>
									</g>
								</g>
								<g>
									<defs>
										<rect id="SVGID_91_" x="16.4" y="1.6" width="48.3" height="99.2"/>
									</defs>
									<clipPath id="SVGID_92_">
										<use xlink:href="#SVGID_91_"  style="overflow:visible;"/>
									</clipPath>
									<g class="st57">
										<path class="st58" d="M39.9,79.6l5.2-2.8c0,0,6.6,2.7,8.7,4.4"/>
										<path class="st58" d="M40.6,100.8c0,0-0.1-44-2-53.3c-1.9-9.3-3.2-19.2-1.9-30.6"/>
										<path class="st58" d="M24.5,41.8c0,0,11.4,11.1,14.7,24.1"/>
										<path class="st58" d="M23.8,81.1c3.5-5.6,10.7-10.5,12.6-8.8c2.2,2,3.8,6.3,3.8,6.3s3.5-9.1,5.4-13.5
											c2-4.4,4.5-9.6,4.5-9.6"/>
										<path class="st58" d="M36.9,37.4c0,0,2-6.2,8.8-13.1"/>
									</g>
								</g>
							</g>
						</g>
					</g>
				</g>
			</g>
		</g>
	</g>
	<g>
		<defs>
			<rect id="SVGID_93_" x="111.1" y="31.4" width="7.5" height="7"/>
		</defs>
		<clipPath id="SVGID_94_">
			<use xlink:href="#SVGID_93_"  style="overflow:visible;"/>
		</clipPath>
		<g class="st59">
			<g>
				<defs>
					<rect id="SVGID_95_" x="-814.3" y="-139.9" width="1242.3" height="950.7"/>
				</defs>
				<clipPath id="SVGID_96_">
					<use xlink:href="#SVGID_95_"  style="overflow:visible;"/>
				</clipPath>
				<g class="st60">
					<g>
						<g>
							<defs>
								<rect id="SVGID_97_" x="110.5" y="31" width="8.6" height="7.8"/>
							</defs>
							<clipPath id="SVGID_98_">
								<use xlink:href="#SVGID_97_"  style="overflow:visible;"/>
							</clipPath>
							<g class="st61">
								<g>
									<defs>
										<path id="SVGID_99_" d="M113.4,36.6l-2.3,1.8c0,0,3.5-5,4.6-6c1.1-1.1,1.4-1,1.4-1l1.5,0.2"/>
									</defs>
									<clipPath id="SVGID_100_">
										<use xlink:href="#SVGID_99_"  style="overflow:visible;"/>
									</clipPath>
									<g class="st62">
										<g>
											<defs>
												<rect id="SVGID_101_" x="110.5" y="31" width="8.6" height="7.8"/>
											</defs>
											<clipPath id="SVGID_102_">
												<use xlink:href="#SVGID_101_"  style="overflow:visible;"/>
											</clipPath>
											<g class="st63">
												<rect x="106.8" y="27.1" class="st34" width="16.2" height="15.7"/>
											</g>
										</g>
									</g>
								</g>
							</g>
						</g>
					</g>
				</g>
			</g>
		</g>
	</g>
</g>
</svg>
